<svg width="800" height="800" viewBox="0 0 60.013 60.013" xml:space="preserve" xmlns="http://www.w3.org/2000/svg"><path d="m11.68 12.506-.832-5h-2.99c-.447-1.72-1.999-3-3.858-3-2.206 0-4 1.794-4 4s1.794 4 4 4c1.859 0 3.411-1.28 3.858-3h1.294l.5 3h-.028l.222 1.161v.003l2.559 13.374 1.044 5.462h.001l1.342 7.015c-2.468.186-4.525 2.084-4.768 4.475a5.01 5.01 0 0 0 4.975 5.51h2c0 3.309 2.691 6 6 6s6-2.691 6-6h11c0 3.309 2.691 6 6 6s6-2.691 6-6h4a1 1 0 1 0 0-2h-4.35c-.826-2.327-3.043-4-5.65-4s-4.824 1.673-5.65 4h-11.7c-.826-2.327-3.043-4-5.65-4s-4.824 1.673-5.65 4H15a3.01 3.01 0 0 1-2.224-.993 2.968 2.968 0 0 1-.761-2.316c.152-1.509 1.546-2.69 3.173-2.69h.841l6.128-.002L33 41.501V41.5l7.145-.002L51 41.496v-.001l4.024-.001a4.993 4.993 0 0 0 4.988-4.987V12.494l-48.332.012zm-7.68-2c-1.103 0-2-.897-2-2s.897-2 2-2 2 .897 2 2-.897 2-2 2zm42 35c2.206 0 4 1.794 4 4s-1.794 4-4 4-4-1.794-4-4 1.794-4 4-4zm-23 0c2.206 0 4 1.794 4 4s-1.794 4-4 4-4-1.794-4-4 1.794-4 4-4zm35.013-24H51v-7.011l7.013-.002v7.013zM42 39.498v-6.991h7v6.989l-7 .002zm0-8.992v-7h7v7h-7zm-18 8.997v-6.997h7v6.995l-7 .002zm0-8.997v-7h7v7h-7zm-10.235-7H22v7h-6.895l-1.34-7zm35.235-2h-7v-7h7v7zm-9 0h-7V14.5l7-.002v7.008zm-9-7v7h-7v-7h7zm2 9h7v7h-7v-7zm18 0h7v7h-7v-7zm-29-9.002v7.003h-8.618l-1.34-7L22 14.504zm-6.513 18.002H22v6.997l-5.173.002-1.34-6.999zm17.513 0h7v6.992l-7 .002v-6.994zm22.024 6.988L51 39.495v-6.989h7.013v4a2.992 2.992 0 0 1-2.989 2.988z"/></svg>